<svg xmlns:xlink="http://www.w3.org/1999/xlink" width="46" height="46" viewBox="0 0 80 80" fill="none" xmlns="http://www.w3.org/2000/svg" style="display: block;"><path d="M40 75.12C59.3962 75.12 75.12 59.3962 75.12 40C75.12 20.6038 59.3962 4.88 40 4.88C20.6038 4.88 4.88 20.6038 4.88 40C4.88 59.3962 20.6038 75.12 40 75.12Z" fill="url(&quot;#paint0_linear_20_158&quot;)"></path><path d="M40 70.88C57.0545 70.88 70.88 57.0545 70.88 40C70.88 22.9454 57.0545 9.12 40 9.12C22.9454 9.12 9.12 22.9454 9.12 40C9.12 57.0545 22.9454 70.88 40 70.88Z" fill="url(&quot;#paint1_radial_20_158&quot;)"></path><path d="M39.52 43.24H53L58.04 36.48H39.52V30.6H56.12L61.6 23.16H32C31.64 23.2 31.32 23.68 31.12 23.92C29.44 28.68 27.04 35.92 27.04 35.92C27.04 35.92 21.28 36.92 17.36 37.44C17 37.44 16.6 37.96 16.6 38.2C16.4 38.72 16.6 39.2 16.8 39.44C19.76 42.92 24.04 48.44 24.04 48.44C24.04 48.44 22.92 56.16 22 61.4C22 61.92 22 62.4 22.36 62.64C22.72 63.16 23.12 63.16 23.48 62.88C26.64 60.52 31.44 56.84 32 56.44H55.16L60.68 49H39.52V43.24Z" fill="url(&quot;#paint2_linear_20_158&quot;)"></path><defs><linearGradient id="paint0_linear_20_158" x1="4.88" y1="40" x2="75.12" y2="40" gradientUnits="userSpaceOnUse"><stop offset="0.00167387" stop-color="#FFC300"></stop><stop offset="1" stop-color="#F9980D"></stop></linearGradient><radialGradient id="paint1_radial_20_158" cx="0" cy="0" r="1" gradientUnits="userSpaceOnUse" gradientTransform="translate(40 40) scale(30.88)"><stop stop-color="#001D3D"></stop><stop offset="1" stop-color="#000814"></stop></radialGradient><linearGradient id="paint2_linear_20_158" x1="60.7632" y1="22.3232" x2="21.4267" y2="61.6597" gradientUnits="userSpaceOnUse"><stop offset="0.00167386" stop-color="white"></stop><stop offset="1" stop-color="#DDDDDD"></stop></linearGradient><linearGradient id="paint0_linear_20_158" x1="4.88" y1="40" x2="75.12" y2="40" gradientUnits="userSpaceOnUse"><stop offset="0.00167387" stop-color="#FFC300"></stop><stop offset="1" stop-color="#F9980D"></stop></linearGradient><radialGradient id="paint1_radial_20_158" cx="0" cy="0" r="1" gradientUnits="userSpaceOnUse" gradientTransform="translate(40 40) scale(30.88)"><stop stop-color="#001D3D"></stop><stop offset="1" stop-color="#000814"></stop></radialGradient><linearGradient id="paint2_linear_20_158" x1="60.7632" y1="22.3232" x2="21.4267" y2="61.6597" gradientUnits="userSpaceOnUse"><stop offset="0.00167386" stop-color="white"></stop><stop offset="1" stop-color="#DDDDDD"></stop></linearGradient></defs></svg>
