<svg xmlns="http://www.w3.org/2000/svg" viewBox="0 0 72 171"><defs><style>.cls-1{fill:#3f1900;}.cls-2{fill:#ffc3bf;}.cls-3{fill:#ff9b94;}.cls-4{fill:#5fa6ff;}.cls-5{fill:#6b2a00;}.cls-6{fill:#2b0f00;}.cls-7{fill:#3b92ff;}</style></defs><g id="Layer_2" data-name="Layer 2"><g id="Layer_1-2" data-name="Layer 1"><rect class="cls-1" x="9" y="27" width="9" height="9"/><rect class="cls-1" x="18" y="27" width="9" height="9"/><rect class="cls-1" x="27" y="27" width="9" height="9"/><rect class="cls-1" x="36" y="27" width="9" height="9"/><rect class="cls-1" x="45" y="27" width="9" height="9"/><rect class="cls-1" x="45" y="18" width="9" height="9"/><rect class="cls-1" x="45" y="9" width="9" height="9"/><rect class="cls-1" x="45" width="9" height="9"/><rect class="cls-1" x="36" width="9" height="9"/><rect class="cls-1" x="27" width="9" height="9"/><rect class="cls-1" x="18" width="9" height="9"/><rect class="cls-1" x="9" width="9" height="9"/><rect class="cls-1" x="9" y="9" width="9" height="9"/><rect class="cls-1" x="9" y="18" width="9" height="9"/><rect class="cls-1" x="18" y="18" width="9" height="9"/><rect class="cls-1" x="27" y="18" width="9" height="9"/><rect class="cls-1" x="36" y="18" width="9" height="9"/><rect class="cls-1" x="36" y="9" width="9" height="9"/><rect class="cls-1" x="27" y="9" width="9" height="9"/><rect class="cls-1" x="18" y="9" width="9" height="9"/><rect class="cls-1" x="54" y="27" width="9" height="9"/><rect class="cls-1" x="54" y="18" width="9" height="9"/><rect class="cls-1" x="54" y="9" width="9" height="9"/><rect class="cls-1" x="54" width="9" height="9"/><rect class="cls-1" x="9" y="36" width="9" height="9"/><rect class="cls-1" x="54" y="36" width="9" height="9"/><rect class="cls-2" x="18" y="36" width="9" height="9"/><rect class="cls-2" x="27" y="36" width="9" height="9"/><rect class="cls-2" x="36" y="36" width="9" height="9"/><rect class="cls-2" x="45" y="36" width="9" height="9"/><rect class="cls-2" x="45" y="45" width="9" height="9"/><rect class="cls-2" x="36" y="45" width="9" height="9"/><rect class="cls-2" x="27" y="45" width="9" height="9"/><rect class="cls-3" x="9" y="45" width="9" height="9"/><rect class="cls-2" x="9" y="54" width="9" height="9"/><rect class="cls-2" x="18" y="54" width="9" height="9"/><rect class="cls-2" x="27" y="54" width="9" height="9"/><rect class="cls-2" x="36" y="54" width="9" height="9"/><rect class="cls-2" x="45" y="54" width="9" height="9"/><rect class="cls-2" x="54" y="54" width="9" height="9"/><rect class="cls-3" x="54" y="45" width="9" height="9"/><rect class="cls-2" x="18" y="45" width="9" height="9"/><rect class="cls-2" x="9" y="36" width="9" height="9"/><rect class="cls-2" x="54" y="36" width="9" height="9"/><rect x="18" y="36" width="9" height="9"/><rect x="45" y="36" width="9" height="9"/><rect class="cls-4" x="9" y="63" width="9" height="9"/><rect class="cls-4" x="18" y="63" width="9" height="9"/><rect class="cls-4" x="27" y="63" width="9" height="9"/><rect class="cls-4" x="36" y="63" width="9" height="9"/><rect class="cls-4" x="45" y="63" width="9" height="9"/><rect class="cls-4" x="54" y="63" width="9" height="9"/><rect class="cls-4" x="54" y="72" width="9" height="9"/><rect class="cls-4" x="54" y="81" width="9" height="9"/><rect class="cls-4" x="54" y="90" width="9" height="9"/><rect class="cls-4" x="45" y="90" width="9" height="9"/><rect class="cls-4" x="36" y="90" width="9" height="9"/><rect class="cls-4" x="27" y="90" width="9" height="9"/><rect class="cls-4" x="18" y="90" width="9" height="9"/><rect class="cls-4" x="9" y="90" width="9" height="9"/><rect class="cls-4" x="9" y="81" width="9" height="9"/><rect class="cls-4" x="9" y="72" width="9" height="9"/><rect class="cls-4" x="18" y="72" width="9" height="9"/><rect class="cls-4" x="27" y="72" width="9" height="9"/><rect class="cls-4" x="36" y="72" width="9" height="9"/><rect class="cls-4" x="45" y="72" width="9" height="9"/><rect class="cls-4" x="45" y="81" width="9" height="9"/><rect class="cls-4" x="36" y="81" width="9" height="9"/><rect class="cls-4" x="27" y="81" width="9" height="9"/><rect class="cls-4" x="18" y="81" width="9" height="9"/><rect class="cls-4" x="9" y="99" width="9" height="9"/><rect class="cls-4" x="18" y="99" width="9" height="9"/><rect class="cls-4" x="27" y="99" width="9" height="9"/><rect class="cls-4" x="36" y="99" width="9" height="9"/><rect class="cls-4" x="45" y="99" width="9" height="9"/><rect class="cls-4" x="54" y="99" width="9" height="9"/><rect class="cls-1" x="27" y="63" width="9" height="9"/><rect class="cls-1" x="36" y="63" width="9" height="9"/><rect class="cls-5" x="27" y="72" width="9" height="9"/><rect class="cls-5" x="27" y="81" width="9" height="9"/><rect class="cls-5" x="27" y="90" width="9" height="9"/><rect class="cls-5" x="36" y="90" width="9" height="9"/><rect class="cls-5" x="36" y="81" width="9" height="9"/><rect class="cls-5" x="36" y="72" width="9" height="9"/><rect class="cls-6" x="36" y="63" width="9" height="9"/><rect class="cls-6" x="27" y="63" width="9" height="9"/><rect x="9" y="108" width="9" height="9"/><rect x="18" y="108" width="9" height="9"/><rect x="27" y="108" width="9" height="9"/><rect x="36" y="108" width="9" height="9"/><rect x="45" y="108" width="9" height="9"/><rect x="54" y="108" width="9" height="9"/><rect x="54" y="117" width="9" height="9"/><rect x="45" y="117" width="9" height="9"/><rect x="36" y="117" width="9" height="9"/><rect x="27" y="117" width="9" height="9"/><rect x="18" y="117" width="9" height="9"/><rect x="9" y="117" width="9" height="9"/><rect x="9" y="126" width="9" height="9"/><rect x="9" y="135" width="9" height="9"/><rect x="9" y="144" width="9" height="9"/><rect x="9" y="153" width="9" height="9"/><rect x="18" y="153" width="9" height="9"/><rect x="18" y="144" width="9" height="9"/><rect x="18" y="135" width="9" height="9"/><rect x="18" y="126" width="9" height="9"/><rect x="45" y="126" width="9" height="9"/><rect x="45" y="135" width="9" height="9"/><rect x="45" y="144" width="9" height="9"/><rect x="45" y="153" width="9" height="9"/><rect x="54" y="153" width="9" height="9"/><rect x="54" y="144" width="9" height="9"/><rect x="54" y="135" width="9" height="9"/><rect x="54" y="126" width="9" height="9"/><rect x="18" y="162" width="9" height="9"/><rect x="9" y="162" width="9" height="9"/><rect y="162" width="9" height="9"/><rect x="45" y="162" width="9" height="9"/><rect x="54" y="162" width="9" height="9"/><rect x="63" y="162" width="9" height="9"/><rect class="cls-7" y="72" width="9" height="9"/><rect class="cls-7" y="81" width="9" height="9"/><rect class="cls-7" y="90" width="9" height="9"/><rect class="cls-7" y="99" width="9" height="9"/><rect class="cls-7" y="108" width="9" height="9"/><rect class="cls-7" x="63" y="108" width="9" height="9"/><rect class="cls-7" x="63" y="99" width="9" height="9"/><rect class="cls-7" x="63" y="90" width="9" height="9"/><rect class="cls-7" x="63" y="81" width="9" height="9"/><rect class="cls-7" x="63" y="72" width="9" height="9"/><rect class="cls-2" y="117" width="9" height="9"/><rect class="cls-2" x="63" y="117" width="9" height="9"/><rect class="cls-4" x="9" y="108" width="9" height="9"/><rect class="cls-4" x="18" y="108" width="9" height="9"/><rect class="cls-4" x="27" y="108" width="9" height="9"/><rect class="cls-4" x="36" y="108" width="9" height="9"/><rect class="cls-4" x="45" y="108" width="9" height="9"/><rect class="cls-4" x="54" y="108" width="9" height="9"/></g></g></svg>